<svg version="1.1" id="Layer_1" xmlns="http://www.w3.org/2000/svg" xmlns:xlink="http://www.w3.org/1999/xlink" x="0px" y="0px"
	 width="100%" viewBox="0 0 1181 1181" enable-background="new 0 0 1181 1181" xml:space="preserve">
<path fill="#000000" fill-opacity="0.0" opacity="1.000000" stroke="none" 
	d="
M542.000000,1182.000000 
	C361.333344,1182.000000 181.166672,1182.000000 1.000000,1182.000000 
	C1.000000,788.333313 1.000000,394.666656 1.000000,1.000000 
	C394.666656,1.000000 788.333313,1.000000 1182.000000,1.000000 
	C1182.000000,394.666656 1182.000000,788.333313 1182.000000,1182.000000 
	C968.833313,1182.000000 755.666687,1182.000000 542.000000,1182.000000 
M342.968353,591.038757 
	C342.968353,591.038757 342.896118,591.055298 343.003113,591.780701 
	C345.822968,598.622742 350.455811,604.047668 356.600861,607.999146 
	C365.577393,613.771301 375.260284,616.803345 386.873901,614.020752 
	C398.113861,612.288696 406.815704,606.685791 413.145935,596.340393 
	C419.696442,586.654541 420.881195,576.119995 418.005646,564.182007 
	C415.018005,558.751953 412.030365,553.321960 408.782715,547.275696 
	C402.049072,540.124390 394.022766,535.618530 383.095062,535.018372 
	C377.715912,535.640259 372.336792,536.262146 366.197815,536.981812 
	C354.112213,540.939392 346.284546,549.215454 341.192627,561.368774 
	C338.689240,571.015381 338.220673,580.592957 342.109131,590.543396 
	C342.392548,590.733032 342.675934,590.922668 342.968353,591.038757 
M854.158875,639.984314 
	C850.135376,640.968994 846.111877,641.953735 842.015747,642.149841 
	C843.116089,638.300293 844.216431,634.450684 845.488220,630.001221 
	C842.933411,630.001221 841.126221,630.001221 839.319092,630.001221 
	C823.661316,630.001221 808.003540,629.980103 792.345886,630.015869 
	C788.364380,630.024963 783.664673,628.974487 780.637817,630.728271 
	C778.364563,632.045471 778.233398,637.070007 777.169189,640.450500 
	C777.020508,640.922607 776.989868,641.431946 776.227844,641.732361 
	C751.531433,630.840149 732.569153,612.814697 716.620117,591.760254 
	C705.691650,577.333496 695.699341,562.011353 686.938416,546.176636 
	C676.377686,527.089050 666.769592,507.372711 658.233337,487.297394 
	C650.800049,469.815857 645.271545,451.509369 639.292908,433.437866 
	C638.196289,430.123108 636.739197,429.667511 633.060791,430.020508 
	C621.042114,430.069092 609.023438,430.117676 596.077759,430.014191 
	C588.722290,430.065369 581.366882,430.116547 573.096252,430.015472 
	C569.065308,430.065125 565.034424,430.114746 560.196228,430.023041 
	C557.744629,429.806000 556.367493,430.323273 555.861572,433.329285 
	C555.172424,437.423950 553.710327,441.430145 552.233398,445.343597 
	C545.293213,463.733276 538.966492,482.402588 531.013916,500.348663 
	C522.920715,518.612305 513.184570,536.147949 503.868927,554.654602 
	C497.353271,564.497803 491.403625,574.781189 484.177338,584.071655 
	C475.330902,595.445068 465.415100,605.986755 455.336853,617.157043 
	C443.587616,628.351868 430.280762,637.113586 415.012421,642.106201 
	C414.505951,639.736633 413.721985,637.386597 413.553772,634.993225 
	C413.251587,630.694275 411.062653,629.855042 407.059296,629.903381 
	C388.656891,630.125610 370.250275,629.995422 351.845184,630.011963 
	C350.280457,630.013367 348.715820,630.164062 347.107544,630.247681 
	C348.108582,634.775879 349.008270,638.845703 349.279449,642.806152 
	C348.524597,642.594543 347.769775,642.382874 346.250671,642.003296 
	C327.806854,636.119507 311.067657,627.080322 295.751984,614.258850 
	C287.511932,605.572754 278.466125,597.504700 271.219971,588.056335 
	C260.242218,573.742371 252.117905,557.677368 246.857162,540.269348 
	C246.438889,538.885254 244.352341,538.005371 242.601532,536.173218 
	C239.733536,536.171326 236.865540,536.169495 233.075470,536.021606 
	C228.382645,536.070251 223.689819,536.118896 218.085678,536.020996 
	C214.386093,536.070801 210.686508,536.120605 206.061386,536.024231 
	C196.441742,536.024231 186.822113,536.024231 176.739639,536.024231 
	C203.260544,621.967896 229.628983,707.417419 255.331329,793.250183 
	C254.279465,796.195496 253.227615,799.140808 252.017792,802.995850 
	C252.558716,814.198608 250.515686,825.554810 253.297501,835.473816 
	C260.306427,832.210388 267.153748,829.022156 274.865723,825.971191 
	C276.688232,825.865173 278.538208,825.924316 280.328735,825.626282 
	C291.619843,823.747253 302.844391,821.352539 314.193298,819.965820 
	C328.867126,818.172729 343.631622,817.104980 358.366608,815.835205 
	C370.986420,814.747559 383.616425,813.772278 396.247803,812.825989 
	C409.739868,811.815247 423.225494,810.583496 436.737793,810.007812 
	C459.492004,809.038574 482.262054,808.387146 505.031097,807.834961 
	C525.629150,807.335388 546.235474,806.848267 566.837036,806.890442 
	C599.608032,806.957458 632.380737,807.311035 665.147888,807.843201 
	C690.710999,808.258301 716.267578,809.098999 741.825256,809.814819 
	C749.926453,810.041748 758.028931,810.358459 766.118530,810.839600 
	C781.421265,811.749817 796.713867,812.828796 812.013855,813.787170 
	C814.669861,813.953491 817.363037,813.664551 820.002258,813.939331 
	C831.738586,815.161072 843.465698,816.475464 855.187805,817.828003 
	C862.665161,818.690613 870.125122,819.702271 877.598083,820.604004 
	C886.709839,821.703430 895.839294,822.665527 904.936218,823.874390 
	C908.857910,824.395508 912.781006,825.156860 916.591370,826.213196 
	C924.458374,828.394165 932.250061,830.846375 940.540771,833.705078 
	C941.361816,832.562683 942.877625,831.430298 942.894165,830.276367 
	C943.029236,820.881409 942.883911,811.482483 942.976257,801.328186 
	C941.663208,798.522644 940.350098,795.717163 939.019714,792.139526 
	C943.342834,778.321533 947.723450,764.521240 951.975708,750.681396 
	C958.457214,729.585876 964.771118,708.438599 971.300415,687.357910 
	C979.115417,662.125854 987.523499,637.068359 994.857849,611.699097 
	C1002.059875,586.787537 1008.237610,561.579895 1014.918518,536.299255 
	C1014.181030,536.188354 1013.566528,536.015564 1012.951904,536.015076 
	C993.478943,536.000305 974.005981,535.990906 954.533142,536.039429 
	C953.672974,536.041565 952.814148,536.594849 951.173218,536.993958 
	C950.118286,538.161865 948.688660,539.159485 948.067871,540.524841 
	C943.279846,551.055359 939.014893,561.840759 933.835999,572.170288 
	C930.541870,578.740479 925.963318,584.666748 921.331665,591.159302 
	C913.888428,598.828918 906.445129,606.498474 898.324280,614.197449 
	C897.002686,615.441040 895.786133,616.824768 894.343079,617.906250 
	C882.205322,627.003052 868.979919,634.167297 854.158875,639.984314 
M639.742004,393.725342 
	C641.438660,390.484589 643.135376,387.243835 644.994568,383.226990 
	C648.402466,375.784790 648.341919,367.918884 647.973816,359.165283 
	C647.019470,355.430206 646.065125,351.695099 645.005920,347.201965 
	C642.687805,343.100159 640.369629,338.998383 637.782471,334.267487 
	C631.511475,323.749176 610.015137,313.572235 598.070862,314.984283 
	C587.106506,316.280518 576.724060,318.911743 568.054443,326.069977 
	C565.366089,328.289642 563.301941,331.265381 560.315125,334.172882 
	C558.175049,337.766541 556.034912,341.360199 553.229126,345.321716 
	C552.208374,349.547241 551.187683,353.772766 550.020325,358.923950 
	C550.124878,367.073853 548.974487,375.387756 553.035706,383.730011 
	C554.746521,386.820160 556.457397,389.910278 558.213562,393.673126 
	C561.538086,397.011414 564.644897,400.606720 568.227295,403.640533 
	C579.750366,413.399170 593.456543,415.687347 607.815002,413.509277 
	C620.801636,411.539246 631.423584,404.929932 639.742004,393.725342 
M814.088501,535.016968 
	C808.378906,535.639648 802.669373,536.262268 796.201965,536.982727 
	C792.242554,539.080200 787.880676,540.666382 784.416870,543.393311 
	C779.029114,547.634705 774.571838,552.870789 772.264099,560.263245 
	C768.701477,570.623840 768.776428,580.877625 773.239685,591.703857 
	C777.191345,596.672302 780.457703,602.468933 785.243408,606.429443 
	C794.037170,613.706909 804.504456,616.687012 816.878418,614.021912 
	C828.195068,612.341919 836.944519,606.693176 843.741333,596.717346 
	C844.498596,595.114929 845.238281,593.503906 846.016052,591.911438 
	C850.432312,582.869934 851.497986,573.580872 848.007263,563.179443 
	C845.372437,558.439026 842.737671,553.698669 839.993469,548.251953 
	C833.374023,540.627991 825.128845,536.108948 814.088501,535.016968 
M167.996048,490.790955 
	C168.196579,491.568848 168.265915,492.412415 168.617355,493.114777 
	C173.654755,503.181885 180.924332,511.268463 191.207031,515.925293 
	C201.266846,520.481201 211.853897,522.971863 223.775146,519.982727 
	C233.455566,517.699951 241.972031,513.332581 249.117508,505.368958 
	C252.356735,500.244904 255.595963,495.120850 259.172882,489.308105 
	C263.789429,479.086212 263.777344,468.618988 260.963043,457.247345 
	C258.061371,450.723389 256.215607,443.572510 249.834091,438.335358 
	C241.857147,429.416321 232.179810,423.777039 219.579605,422.157471 
	C212.218002,421.843323 204.869080,421.629639 197.196182,424.981628 
	C186.928848,428.287262 178.628998,434.254486 172.063751,443.780182 
	C169.671432,450.508179 167.279114,457.236145 164.162994,464.436798 
	C163.814804,473.202179 163.457153,481.968903 167.996048,490.790955 
M976.187683,422.047333 
	C967.998047,423.820038 959.810364,425.718353 953.063416,431.049500 
	C950.104553,433.387451 947.603455,436.304657 944.265442,439.213654 
	C939.246948,444.585144 935.782166,450.791992 933.997559,458.807800 
	C929.855774,472.805878 932.275574,485.819153 940.165100,498.693878 
	C948.131897,511.027893 959.461975,518.056335 974.427795,520.829956 
	C977.087708,520.886353 979.757812,521.120972 982.405945,520.970703 
	C1002.144348,519.850830 1017.148315,511.317535 1026.165894,492.332001 
	C1031.859985,480.481293 1032.800537,468.374268 1028.008911,455.205811 
	C1022.918518,440.282257 1013.093140,430.089905 997.285767,424.816650 
	C990.520020,423.934906 983.754272,423.053162 976.187683,422.047333 
z"/>
<path fill="#F5C733" opacity="1.000000" stroke="none" 
	d="
M561.003479,430.164368 
	C565.034424,430.114746 569.065308,430.065125 573.551392,430.549500 
	C574.005127,540.187805 574.003845,649.292114 574.002563,758.396362 
	C574.002563,759.062622 574.068970,759.736511 573.992859,760.393921 
	C573.596863,763.814209 574.974426,765.184937 578.515137,765.061829 
	C584.670898,764.847961 590.839355,764.997864 597.462524,764.999146 
	C614.274658,765.323669 630.626709,765.644287 647.449585,765.978516 
	C655.940796,765.990662 663.961060,765.989197 672.441406,765.992432 
	C678.601074,765.999268 684.300720,766.001526 690.190552,766.246765 
	C690.922119,767.318726 691.463501,768.147644 691.537720,768.984741 
	C677.319031,768.661926 663.568665,768.271851 649.815735,768.025330 
	C643.122192,767.905396 643.017273,768.110718 643.006409,774.588745 
	C642.991638,783.391663 643.004089,792.194641 642.535889,800.999817 
	C602.712952,801.332458 563.358887,801.662903 524.003540,801.525146 
	C524.001648,792.556885 524.121948,784.054443 523.947266,775.558044 
	C523.865479,771.583557 525.094727,768.963379 529.327942,768.751892 
	C536.292236,768.403992 543.266235,768.250977 550.235291,767.993652 
	C552.219910,767.920471 554.201721,767.770447 556.184814,767.655701 
	C556.153137,767.103760 556.121399,766.551880 556.089661,766.000000 
	C554.380981,766.000000 552.671936,766.021606 550.963623,765.995728 
	C546.968079,765.935242 542.969727,765.928406 538.978088,765.764099 
	C524.936707,765.186157 510.895569,762.546570 496.857483,765.589417 
	C493.136810,766.395874 491.967438,764.842529 491.993591,761.460632 
	C492.035614,756.018982 492.062866,750.575989 491.989349,745.135010 
	C491.681213,722.336914 491.187866,699.540222 491.038666,676.741211 
	C490.870758,651.075745 491.026306,625.408325 490.954620,599.741943 
	C490.948242,597.467712 490.303253,595.195251 490.014771,592.579834 
	C495.723083,583.165222 501.371460,574.092712 507.277039,564.803223 
	C512.788940,555.165710 518.484619,545.960632 523.211914,536.282593 
	C535.249695,511.638245 545.857666,486.365997 553.740356,460.061066 
	C556.680115,450.250916 558.612061,440.138794 561.003479,430.164368 
z"/>
<path fill="#F5DE57" opacity="1.000000" stroke="none" 
	d="
M646.978760,765.964905 
	C630.626709,765.644287 614.274658,765.323669 597.461670,764.540283 
	C597.002136,652.773804 597.003479,541.470032 597.004761,430.166290 
	C609.023438,430.117676 621.042114,430.069092 633.533447,430.493164 
	C638.588135,453.322083 645.552124,474.945801 654.041321,496.100067 
	C657.371765,504.399292 660.710632,512.695129 663.786560,521.264282 
	C663.624878,523.967896 663.964172,526.418213 663.780396,528.828735 
	C662.583862,544.527222 661.208374,560.212097 660.023193,575.911438 
	C659.211548,586.663330 658.707214,597.438354 657.897034,608.190430 
	C656.676697,624.387634 655.245972,640.568970 654.023071,656.765991 
	C652.911804,671.484436 651.890747,686.210449 650.951843,700.940918 
	C649.570557,722.611938 648.297729,744.289917 646.978760,765.964905 
z"/>
<path fill="#F5E059" opacity="1.000000" stroke="none" 
	d="
M951.954712,536.891357 
	C952.814148,536.594849 953.672974,536.041565 954.533142,536.039429 
	C974.005981,535.990906 993.478943,536.000305 1012.951904,536.015076 
	C1013.566528,536.015564 1014.181030,536.188354 1014.918518,536.299255 
	C1008.237610,561.579895 1002.059875,586.787537 994.857849,611.699097 
	C987.523499,637.068359 979.115417,662.125854 971.300415,687.357910 
	C964.771118,708.438599 958.457214,729.585876 951.975708,750.681396 
	C947.723450,764.521240 943.342834,778.321533 938.639038,792.542969 
	C927.538757,790.277283 916.855896,787.446472 906.087463,784.991028 
	C897.772156,783.094910 889.349487,781.669434 880.998901,779.627075 
	C892.187195,724.719299 904.770813,670.500977 914.746399,615.764893 
	C914.210205,615.516968 913.674072,615.269043 913.137878,615.021118 
	C908.760193,618.681152 904.382568,622.341125 900.004089,625.552246 
	C899.669495,621.458252 899.335693,617.813171 899.001831,614.168030 
	C906.445129,606.498474 913.888428,598.828918 921.709106,591.404602 
	C922.897705,593.363647 923.708801,595.077393 924.519897,596.791077 
	C926.219788,595.398743 928.502747,594.339478 929.520264,592.557495 
	C934.437378,583.945984 939.830322,575.466125 943.485535,566.312927 
	C947.251587,556.882324 949.207153,546.728699 951.954712,536.891357 
z"/>
<path fill="#F5D64C" opacity="1.000000" stroke="none" 
	d="
M596.541260,430.090240 
	C597.003479,541.470032 597.002136,652.773804 597.001587,764.536377 
	C590.839355,764.997864 584.670898,764.847961 578.515137,765.061829 
	C574.974426,765.184937 573.596863,763.814209 573.992859,760.393921 
	C574.068970,759.736511 574.002563,759.062622 574.002563,758.396362 
	C574.003845,649.292114 574.005127,540.187805 574.008972,430.625641 
	C581.366882,430.116547 588.722290,430.065369 596.541260,430.090240 
z"/>
<path fill="#F6EC95" opacity="1.000000" stroke="none" 
	d="
M255.997406,792.866943 
	C229.628983,707.417419 203.260544,621.967896 176.739639,536.024231 
	C186.822113,536.024231 196.441742,536.024231 206.594635,536.470459 
	C213.018051,561.291077 218.946579,585.656311 224.788345,610.042358 
	C231.551270,638.273682 238.194305,666.533691 244.972549,694.761292 
	C249.662476,714.292297 254.591812,733.765991 259.224457,753.310303 
	C262.055817,765.255249 264.527985,777.285217 266.872345,789.485535 
	C263.054626,790.751648 259.526001,791.809326 255.997406,792.866943 
z"/>
<path fill="#F5C936" opacity="1.000000" stroke="none" 
	d="
M255.664368,793.058594 
	C259.526001,791.809326 263.054626,790.751648 267.263153,789.433350 
	C271.286804,788.413269 274.630524,787.653931 278.361084,786.866333 
	C282.178131,785.920227 285.608368,785.002319 289.472534,784.083374 
	C294.262817,783.371216 298.619171,782.659973 303.399323,781.962708 
	C309.554138,780.992188 315.285126,780.007812 321.457947,779.020264 
	C327.264557,778.341370 332.629333,777.665527 338.438507,776.992310 
	C345.454285,776.306458 352.044495,775.745422 358.575439,774.782532 
	C359.482208,774.648865 360.810760,772.478760 360.725037,771.343384 
	C360.315247,765.915222 359.511871,760.515259 358.799652,755.111694 
	C356.878937,740.539429 354.908661,725.973572 353.005066,711.399048 
	C351.272369,698.132935 349.580109,684.861511 347.913330,671.586914 
	C347.220978,666.072815 346.641174,660.544617 346.263977,655.014832 
	C346.686768,654.996765 346.855774,654.986633 347.376404,655.128235 
	C358.825470,656.874573 369.922821,658.469238 381.032471,660.476929 
	C381.959503,669.264526 382.873138,677.639282 383.789246,686.013733 
	C385.191498,698.832031 386.650421,711.644531 387.980835,724.470337 
	C389.003967,734.334045 390.431122,744.204956 390.596191,754.090820 
	C390.701691,760.406982 394.224457,767.056274 388.588409,773.997620 
	C392.611725,773.997620 395.521271,773.987549 398.430756,773.999634 
	C404.791138,774.026001 404.971191,774.192383 404.996857,780.344299 
	C405.016998,785.166260 405.001221,789.988342 405.001251,794.810364 
	C405.001312,805.680298 405.001221,805.680298 394.648560,809.047058 
	C392.194427,809.047791 390.084717,809.015625 387.981445,808.516602 
	C387.991272,798.565430 387.815674,789.076172 388.081421,779.599182 
	C388.196228,775.505310 386.070953,773.860901 382.770050,774.200317 
	C378.134644,774.676941 373.587891,776.015198 368.542847,776.988037 
	C360.718079,777.667908 353.353729,778.344666 345.547211,779.020630 
	C341.662292,779.353210 338.200531,779.554626 334.780426,780.045776 
	C326.176788,781.281189 317.591949,782.647461 308.567444,783.966309 
	C303.571472,784.661804 298.950439,785.093994 294.454285,786.089783 
	C279.603363,789.378967 263.905365,790.521301 252.175751,802.086121 
	C253.227615,799.140808 254.279465,796.195496 255.664368,793.058594 
z"/>
<path fill="#F5E368" opacity="1.000000" stroke="none" 
	d="
M302.975525,781.948792 
	C298.619171,782.659973 294.262817,783.371216 289.403534,783.689209 
	C284.345245,763.922241 279.738678,744.560303 275.245239,725.172180 
	C265.958893,685.103943 256.474609,645.078918 247.582184,604.923035 
	C242.532471,582.120056 238.492325,559.093506 233.997543,536.167603 
	C236.865540,536.169495 239.733536,536.171326 242.795166,536.958984 
	C243.219543,539.370850 243.340958,541.021362 243.697815,542.619385 
	C247.632187,560.236450 254.972672,576.455750 264.020264,592.408569 
	C264.203857,594.995483 264.181793,597.184265 264.623199,599.275269 
	C270.450012,626.879333 276.358307,654.466309 282.212067,682.064697 
	C286.065613,700.232666 289.895233,718.405823 293.677521,736.588745 
	C296.820801,751.699585 299.879425,766.828125 302.975525,781.948792 
z"/>
<path fill="#F5BB25" opacity="1.000000" stroke="none" 
	d="
M997.994141,425.166962 
	C1013.093140,430.089905 1022.918518,440.282257 1027.711182,455.645905 
	C1026.679565,456.695801 1025.658447,457.156647 1025.253784,457.937103 
	C1014.525940,478.631897 997.506897,491.465027 975.222473,497.262756 
	C968.743469,498.948364 961.855286,499.456055 955.128601,499.665100 
	C950.069946,499.822327 944.969604,498.639404 939.887817,498.053101 
	C932.275574,485.819153 929.855774,472.805878 934.432251,458.463043 
	C944.484741,462.693359 954.284790,465.314911 965.156067,463.024353 
	C982.801575,459.306519 997.427856,442.756012 997.994141,425.166962 
z"/>
<path fill="#F5C32F" opacity="1.000000" stroke="none" 
	d="
M880.974548,780.034668 
	C889.349487,781.669434 897.772156,783.094910 906.087463,784.991028 
	C916.855896,787.446472 927.538757,790.277283 938.647705,792.929077 
	C940.350098,795.717163 941.663208,798.522644 942.577148,801.620239 
	C934.064758,793.056213 923.084229,790.849121 911.710815,788.660645 
	C906.625305,787.597717 901.823181,786.770081 896.733398,785.695312 
	C892.884766,784.776917 889.289246,784.248291 885.771667,783.397339 
	C881.616821,782.392151 879.903381,783.792725 879.968811,788.093384 
	C880.115417,797.714050 880.044434,807.338074 879.671814,816.913208 
	C878.323059,816.606018 877.369141,816.142761 876.405212,816.120789 
	C871.220337,816.002563 869.631592,813.248718 869.927612,808.355042 
	C870.247498,803.067200 870.000000,797.745056 870.000000,792.437866 
	C870.000000,781.558777 869.998657,781.567261 859.323792,779.847839 
	C858.184631,779.664307 857.073303,779.307983 855.501221,779.029968 
	C847.371399,778.370972 839.689331,777.713745 831.568420,777.044983 
	C822.122864,776.105713 813.132935,774.936340 804.105164,774.314697 
	C794.084900,773.624695 784.030212,773.434570 773.682495,772.764465 
	C770.262756,772.342102 767.150879,772.182007 763.621582,772.021851 
	C759.959167,771.835083 759.985657,774.047668 759.992554,776.324219 
	C760.015137,783.770325 759.893005,791.218628 760.038940,798.661926 
	C760.123413,802.967834 758.587830,805.341187 753.995239,804.522705 
	C753.997131,797.731689 754.066040,791.407227 753.983765,785.084839 
	C753.808655,771.634644 756.781555,770.730042 739.634521,770.995605 
	C738.174561,770.339417 737.082581,769.685303 736.459412,769.019409 
	C738.924622,769.002808 740.925537,768.907471 742.916748,769.007141 
	C762.612427,769.992676 782.306458,771.010559 802.318970,772.275269 
	C811.533875,773.352783 820.434326,774.139221 829.326050,775.013123 
	C832.904968,775.364868 834.939087,774.167542 835.441406,770.337280 
	C836.087036,765.414246 837.152161,760.547729 837.957214,755.643799 
	C841.499756,734.064270 845.096802,712.493225 848.506409,690.892578 
	C850.493530,678.303650 852.164001,665.664856 854.181519,652.912903 
	C854.650330,652.573792 854.855164,652.322021 855.376282,651.998657 
	C862.166443,649.315613 868.580933,646.655884 875.238770,644.265564 
	C875.500061,645.334595 875.651978,646.157776 875.515747,646.930115 
	C873.703979,657.198059 871.793823,667.448792 870.021179,677.723389 
	C865.800232,702.188843 861.652954,726.667114 857.446899,751.135193 
	C856.022461,759.421875 854.511047,767.693604 852.901245,776.749207 
	C857.240234,777.193176 861.128662,777.591064 865.387817,778.150757 
	C870.830566,778.886597 875.902588,779.460632 880.974548,780.034668 
z"/>
<path fill="#F5D64C" opacity="1.000000" stroke="none" 
	d="
M337.994141,776.989746 
	C332.629333,777.665527 327.264557,778.341370 321.453094,778.576172 
	C318.507172,762.101440 316.157715,746.042480 313.449341,730.044189 
	C311.961365,721.254822 309.827209,712.576172 308.059387,703.832458 
	C305.861725,692.962830 303.735443,682.078735 301.589874,671.198547 
	C300.052643,663.403503 298.577576,655.595947 296.995575,647.810059 
	C295.381531,639.866394 293.670715,631.942383 292.221619,623.735840 
	C293.639862,620.600342 294.838806,617.738770 296.037720,614.877136 
	C311.067657,627.080322 327.806854,636.119507 346.630310,642.539429 
	C347.014893,647.042542 347.019836,651.009583 347.024750,654.976562 
	C346.855774,654.986633 346.686768,654.996765 345.998840,654.764160 
	C337.647552,651.347534 329.840240,648.109070 321.959839,645.059448 
	C320.549255,644.513611 318.404541,644.119141 317.395081,644.813110 
	C316.526001,645.410461 316.394806,647.723389 316.625946,649.167480 
	C317.594299,655.217285 318.934967,661.206848 319.933777,667.252441 
	C323.494324,688.804749 326.949036,710.374573 330.486847,731.930664 
	C332.952850,746.956360 335.489227,761.970459 337.994141,776.989746 
z"/>
<path fill="#F5E676" opacity="1.000000" stroke="none" 
	d="
M233.536499,536.094604 
	C238.492325,559.093506 242.532471,582.120056 247.582184,604.923035 
	C256.474609,645.078918 265.958893,685.103943 275.245239,725.172180 
	C279.738678,744.560303 284.345245,763.922241 288.969604,783.690186 
	C285.608368,785.002319 282.178131,785.920227 278.304138,786.493896 
	C276.175385,779.045776 274.526703,771.932983 272.798035,764.839722 
	C268.555542,747.431396 264.252808,730.037781 260.018524,712.627441 
	C256.175385,696.825317 252.442383,680.996338 248.561081,665.203674 
	C246.144836,655.372253 243.290176,645.643127 241.077957,635.768188 
	C236.618668,615.862732 232.538773,595.872498 228.156693,575.949341 
	C225.233734,562.660095 222.059036,549.426208 218.996994,536.167603 
	C223.689819,536.118896 228.382645,536.070251 233.536499,536.094604 
z"/>
<path fill="#F5BB25" opacity="1.000000" stroke="none" 
	d="
M260.832489,457.996338 
	C263.777344,468.618988 263.789429,479.086212 258.585327,489.653992 
	C256.686310,490.158173 255.352585,490.213196 254.066956,490.490906 
	C241.978149,493.102234 229.897812,492.638550 218.258224,488.820190 
	C195.488037,481.350372 180.244781,465.964783 172.537750,443.209473 
	C178.628998,434.254486 186.928848,428.287262 197.589798,425.348572 
	C200.800690,445.363617 212.648438,458.770752 231.347992,462.497559 
	C241.541641,464.529144 251.498581,462.741943 260.832489,457.996338 
z"/>
<path fill="#F5E982" opacity="1.000000" stroke="none" 
	d="
M218.541336,536.094238 
	C222.059036,549.426208 225.233734,562.660095 228.156693,575.949341 
	C232.538773,595.872498 236.618668,615.862732 241.077957,635.768188 
	C243.290176,645.643127 246.144836,655.372253 248.561081,665.203674 
	C252.442383,680.996338 256.175385,696.825317 260.018524,712.627441 
	C264.252808,730.037781 268.555542,747.431396 272.798035,764.839722 
	C274.526703,771.932983 276.175385,779.045776 277.917358,786.522095 
	C274.630524,787.653931 271.286804,788.413269 267.552277,789.224854 
	C264.527985,777.285217 262.055817,765.255249 259.224457,753.310303 
	C254.591812,733.765991 249.662476,714.292297 244.972549,694.761292 
	C238.194305,666.533691 231.551270,638.273682 224.788345,610.042358 
	C218.946579,585.656311 213.018051,561.291077 207.057404,536.543518 
	C210.686508,536.120605 214.386093,536.070801 218.541336,536.094238 
z"/>
<path fill="#F5C733" opacity="1.000000" stroke="none" 
	d="
M664.045593,520.992554 
	C660.710632,512.695129 657.371765,504.399292 654.041321,496.100067 
	C645.552124,474.945801 638.588135,453.322083 633.996094,430.566650 
	C636.739197,429.667511 638.196289,430.123108 639.292908,433.437866 
	C645.271545,451.509369 650.800049,469.815857 658.233337,487.297394 
	C666.769592,507.372711 676.377686,527.089050 686.938416,546.176636 
	C695.699341,562.011353 705.691650,577.333496 716.620117,591.760254 
	C732.569153,612.814697 751.531433,630.840149 776.904785,641.991699 
	C784.062195,643.856812 790.542725,645.462708 797.016968,647.521729 
	C797.013611,651.638428 797.016479,655.301880 796.580750,658.978699 
	C793.855774,658.744934 791.544067,658.637695 789.287292,658.227661 
	C776.355164,655.878235 764.980957,649.887329 753.795288,642.731812 
	C746.723206,636.649048 739.862854,630.819946 732.842407,624.699829 
	C727.803345,619.122986 723.015320,613.747742 717.980896,608.614136 
	C716.732056,607.340698 714.684998,606.849976 712.952271,605.643005 
	C706.268860,595.191040 699.638184,585.095520 692.950439,574.652222 
	C683.912781,557.493225 674.937073,540.679321 665.939331,523.877258 
	C665.398499,522.867310 664.680908,521.951904 664.045593,520.992554 
z"/>
<path fill="#F5BB25" opacity="1.000000" stroke="none" 
	d="
M341.877563,560.960876 
	C346.284546,549.215454 354.112213,540.939392 366.588287,537.364624 
	C367.495514,555.982361 386.968994,571.774109 404.707184,568.243530 
	C409.213959,567.346558 413.644135,566.064697 418.109497,564.959656 
	C420.881195,576.119995 419.696442,586.654541 412.558044,596.670532 
	C405.080597,597.000671 398.100403,597.715698 391.319824,596.856262 
	C375.793610,594.888184 362.800995,587.690918 352.789337,575.554749 
	C348.928436,570.874573 345.501953,565.836121 341.877563,560.960876 
z"/>
<path fill="#F5BB25" opacity="1.000000" stroke="none" 
	d="
M848.109863,563.956482 
	C851.497986,573.580872 850.432312,582.869934 846.016052,591.911438 
	C845.238281,593.503906 844.498596,595.114929 842.951233,596.872681 
	C838.336670,597.020264 834.506165,596.868835 830.688904,597.030518 
	C816.440063,597.634033 804.072144,592.776367 792.729004,584.503052 
	C783.884705,578.052429 778.178528,569.187561 772.942871,559.892517 
	C774.571838,552.870789 779.029114,547.634705 784.416870,543.393311 
	C787.880676,540.666382 792.242554,539.080200 796.604858,537.341125 
	C798.593628,542.525452 799.368958,547.836121 801.912537,552.089294 
	C810.658325,566.712891 830.204895,574.074402 848.109863,563.956482 
z"/>
<path fill="#F5C733" opacity="1.000000" stroke="none" 
	d="
M560.952026,333.894958 
	C563.301941,331.265381 565.366089,328.289642 568.054443,326.069977 
	C576.724060,318.911743 587.106506,316.280518 598.070862,314.984283 
	C610.015137,313.572235 631.511475,323.749176 637.757324,334.882446 
	C616.293945,359.676483 580.345703,358.926239 560.952026,333.894958 
z"/>
<path fill="#F5E676" opacity="1.000000" stroke="none" 
	d="
M252.096771,802.541016 
	C263.905365,790.521301 279.603363,789.378967 294.454285,786.089783 
	C298.950439,785.093994 303.571472,784.661804 308.566559,784.439087 
	C309.035706,795.684326 309.073578,806.461975 308.795349,817.451904 
	C296.986542,820.387512 285.493805,823.110779 274.001068,825.833984 
	C267.153748,829.022156 260.306427,832.210388 253.297501,835.473816 
	C250.515686,825.554810 252.558716,814.198608 252.096771,802.541016 
z"/>
<path fill="#F5A61D" opacity="1.000000" stroke="none" 
	d="
M940.026489,498.373474 
	C944.969604,498.639404 950.069946,499.822327 955.128601,499.665100 
	C961.855286,499.456055 968.743469,498.948364 975.222473,497.262756 
	C997.506897,491.465027 1014.525940,478.631897 1025.253784,457.937103 
	C1025.658447,457.156647 1026.679565,456.695801 1027.770020,456.025269 
	C1032.800537,468.374268 1031.859985,480.481293 1025.646851,492.679138 
	C1024.229248,493.391754 1023.120361,493.534729 1022.463135,494.155670 
	C1009.733459,506.181458 994.644958,513.577637 977.647034,517.390076 
	C976.279114,517.696899 975.173889,519.174866 973.946594,520.108643 
	C959.461975,518.056335 948.131897,511.027893 940.026489,498.373474 
z"/>
<path fill="#F5A61D" opacity="1.000000" stroke="none" 
	d="
M553.167358,383.003326 
	C548.974487,375.387756 550.124878,367.073853 550.426270,358.521790 
	C551.529236,358.555847 552.265381,358.940674 552.917847,359.435730 
	C578.630981,378.947021 605.923218,382.510712 634.989929,367.465363 
	C639.382324,365.191803 643.557007,362.497681 647.832397,359.998108 
	C648.341919,367.918884 648.402466,375.784790 644.531372,383.616821 
	C642.638611,384.374542 641.103760,384.521423 639.795532,385.144226 
	C625.322266,392.034607 610.238403,395.172241 594.103027,394.133636 
	C582.617676,393.394348 571.958557,390.320831 561.534363,385.816071 
	C558.842834,384.652924 555.961487,383.929016 553.167358,383.003326 
z"/>
<path fill="#F5B81D" opacity="1.000000" stroke="none" 
	d="
M172.300751,443.494812 
	C180.244781,465.964783 195.488037,481.350372 218.258224,488.820190 
	C229.897812,492.638550 241.978149,493.102234 254.066956,490.490906 
	C255.352585,490.213196 256.686310,490.158173 258.416443,489.998322 
	C255.595963,495.120850 252.356735,500.244904 248.516998,505.682556 
	C240.178299,505.464508 232.322586,505.605103 224.723724,504.276672 
	C200.838058,500.100952 182.288055,487.504913 168.809036,467.347839 
	C167.883911,465.964264 166.211624,465.080383 164.886810,463.964142 
	C167.279114,457.236145 169.671432,450.508179 172.300751,443.494812 
z"/>
<path fill="#F5C733" opacity="1.000000" stroke="none" 
	d="
M997.639954,424.991821 
	C997.427856,442.756012 982.801575,459.306519 965.156067,463.024353 
	C954.284790,465.314911 944.484741,462.693359 934.517639,458.056152 
	C935.782166,450.791992 939.246948,444.585144 944.956787,439.146301 
	C953.122437,442.910461 960.542114,443.275116 967.755188,438.503265 
	C973.574707,434.653381 975.827942,428.700317 976.988525,422.171417 
	C983.754272,423.053162 990.520020,423.934906 997.639954,424.991821 
z"/>
<path fill="#F5E368" opacity="1.000000" stroke="none" 
	d="
M347.376404,655.128235 
	C347.019836,651.009583 347.014893,647.042542 347.012451,642.623413 
	C347.769775,642.382874 348.524597,642.594543 349.949280,643.011108 
	C366.722321,648.319092 383.248230,647.758972 399.740997,646.476868 
	C404.916534,646.074646 409.973816,644.151917 415.085236,642.925110 
	C430.280762,637.113586 443.587616,628.351868 455.674164,617.445984 
	C456.345795,621.497009 456.680084,625.259155 456.849792,629.309814 
	C447.765930,636.381958 438.846649,643.165527 429.575867,650.014282 
	C414.086121,657.896545 397.903931,660.673706 381.020203,660.063965 
	C369.922821,658.469238 358.825470,656.874573 347.376404,655.128235 
z"/>
<path fill="#F5C733" opacity="1.000000" stroke="none" 
	d="
M260.897766,457.621826 
	C251.498581,462.741943 241.541641,464.529144 231.347992,462.497559 
	C212.648438,458.770752 200.800690,445.363617 197.970459,425.299805 
	C204.869080,421.629639 212.218002,421.843323 219.800385,422.946930 
	C221.368607,427.343201 221.880112,431.655853 224.218887,434.425598 
	C231.481903,443.027191 239.483612,444.105957 250.102798,438.955017 
	C256.215607,443.572510 258.061371,450.723389 260.897766,457.621826 
z"/>
<path fill="#E8A625" opacity="1.000000" stroke="none" 
	d="
M274.433411,825.902588 
	C285.493805,823.110779 296.986542,820.387512 309.235596,817.403564 
	C321.977814,815.710449 333.963715,814.277954 346.378967,812.891968 
	C354.201569,812.284973 361.594818,811.631470 369.378845,810.836365 
	C375.838043,810.124329 381.906525,809.553833 387.974976,808.983398 
	C390.084717,809.015625 392.194427,809.047791 394.866089,809.372192 
	C397.298126,810.093201 399.190369,810.971497 401.035034,810.880859 
	C418.612305,810.017883 436.172699,808.771423 453.755219,808.065491 
	C476.181488,807.165222 498.620453,806.503845 521.060242,806.045715 
	C536.385498,805.732788 551.722168,805.836548 567.052490,805.940979 
	C606.350159,806.208679 645.649475,806.414429 684.943420,806.974854 
	C707.550232,807.297241 730.148438,808.243164 752.749390,808.945618 
	C762.551819,809.250305 772.353638,809.595276 782.151245,810.024719 
	C788.288269,810.293579 794.424622,810.657471 800.547791,811.146790 
	C815.759705,812.362549 830.972290,813.583374 846.168396,814.978760 
	C857.067566,815.979553 867.936401,817.307251 878.829407,818.381165 
	C880.529541,818.548828 882.286438,818.140625 884.384705,818.006775 
	C885.488220,818.024963 886.224182,818.035095 887.069763,818.384644 
	C889.126404,818.836853 891.073364,818.949524 893.304565,819.093323 
	C894.056091,819.418213 894.523376,819.711975 895.271484,820.249207 
	C897.047607,820.654175 898.542969,820.815613 900.461670,820.996582 
	C904.604431,821.632935 908.323730,822.249756 912.429993,822.962585 
	C914.268311,823.382446 915.790344,823.525574 917.159424,824.060181 
	C924.817627,827.050110 932.438904,830.134766 940.072754,833.187012 
	C932.250061,830.846375 924.458374,828.394165 916.591370,826.213196 
	C912.781006,825.156860 908.857910,824.395508 904.936218,823.874390 
	C895.839294,822.665527 886.709839,821.703430 877.598083,820.604004 
	C870.125122,819.702271 862.665161,818.690613 855.187805,817.828003 
	C843.465698,816.475464 831.738586,815.161072 820.002258,813.939331 
	C817.363037,813.664551 814.669861,813.953491 812.013855,813.787170 
	C796.713867,812.828796 781.421265,811.749817 766.118530,810.839600 
	C758.028931,810.358459 749.926453,810.041748 741.825256,809.814819 
	C716.267578,809.098999 690.710999,808.258301 665.147888,807.843201 
	C632.380737,807.311035 599.608032,806.957458 566.837036,806.890442 
	C546.235474,806.848267 525.629150,807.335388 505.031097,807.834961 
	C482.262054,808.387146 459.492004,809.038574 436.737793,810.007812 
	C423.225494,810.583496 409.739868,811.815247 396.247803,812.825989 
	C383.616425,813.772278 370.986420,814.747559 358.366608,815.835205 
	C343.631622,817.104980 328.867126,818.172729 314.193298,819.965820 
	C302.844391,821.352539 291.619843,823.747253 280.328735,825.626282 
	C278.538208,825.924316 276.688232,825.865173 274.433411,825.902588 
z"/>
<path fill="#F5A61D" opacity="1.000000" stroke="none" 
	d="
M772.603516,560.077881 
	C778.178528,569.187561 783.884705,578.052429 792.729004,584.503052 
	C804.072144,592.776367 816.440063,597.634033 830.688904,597.030518 
	C834.506165,596.868835 838.336670,597.020264 842.636597,597.040344 
	C836.944519,606.693176 828.195068,612.341919 816.277344,613.746460 
	C814.510010,612.930664 813.392212,612.215027 812.169983,611.876953 
	C798.816589,608.184875 786.688049,602.297913 776.642700,592.514771 
	C775.796387,591.690552 774.339478,591.493286 773.166260,591.004822 
	C768.776428,580.877625 768.701477,570.623840 772.603516,560.077881 
z"/>
<path fill="#F5A61D" opacity="1.000000" stroke="none" 
	d="
M341.535095,561.164795 
	C345.501953,565.836121 348.928436,570.874573 352.789337,575.554749 
	C362.800995,587.690918 375.793610,594.888184 391.319824,596.856262 
	C398.100403,597.715698 405.080597,597.000671 412.403931,596.998352 
	C406.815704,606.685791 398.113861,612.288696 386.273468,613.743042 
	C384.841339,612.984680 384.062805,612.246155 383.169952,612.062073 
	C370.603455,609.470642 359.708618,603.478455 349.616699,595.792419 
	C347.437775,594.132935 345.139435,592.630249 342.896118,591.055298 
	C342.896118,591.055298 342.968353,591.038757 342.872803,590.864868 
	C342.632690,590.413330 342.428711,590.189880 342.165314,590.020691 
	C338.220673,580.592957 338.689240,571.015381 341.535095,561.164795 
z"/>
<path fill="#F5A61D" opacity="1.000000" stroke="none" 
	d="
M164.524902,464.200470 
	C166.211624,465.080383 167.883911,465.964264 168.809036,467.347839 
	C182.288055,487.504913 200.838058,500.100952 224.723724,504.276672 
	C232.322586,505.605103 240.178299,505.464508 248.372803,505.994751 
	C241.972031,513.332581 233.455566,517.699951 223.277771,519.569641 
	C221.160202,518.449768 219.603317,517.459473 217.909729,517.081238 
	C205.116913,514.224304 193.291275,509.266754 182.794754,501.318909 
	C177.826874,497.557312 172.856461,493.799011 167.887192,490.039215 
	C163.457153,481.968903 163.814804,473.202179 164.524902,464.200470 
z"/>
<path fill="#F4AE21" opacity="1.000000" stroke="none" 
	d="
M647.903076,359.581696 
	C643.557007,362.497681 639.382324,365.191803 634.989929,367.465363 
	C605.923218,382.510712 578.630981,378.947021 552.917847,359.435730 
	C552.265381,358.940674 551.529236,358.555847 550.499573,358.058960 
	C551.187683,353.772766 552.208374,349.547241 553.862976,345.295471 
	C555.244934,345.926300 556.049377,346.529724 556.733093,347.248077 
	C578.485352,370.104370 617.027954,371.308350 640.728455,349.875580 
	C641.849731,348.861603 643.634766,348.581757 645.110718,347.960022 
	C646.065125,351.695099 647.019470,355.430206 647.903076,359.581696 
z"/>
<path fill="#F5BB25" opacity="1.000000" stroke="none" 
	d="
M645.058350,347.580994 
	C643.634766,348.581757 641.849731,348.861603 640.728455,349.875580 
	C617.027954,371.308350 578.485352,370.104370 556.733093,347.248077 
	C556.049377,346.529724 555.244934,345.926300 554.195801,345.111572 
	C556.034912,341.360199 558.175049,337.766541 560.633545,334.033936 
	C580.345703,358.926239 616.293945,359.676483 637.891846,335.196960 
	C640.369629,338.998383 642.687805,343.100159 645.058350,347.580994 
z"/>
<path fill="#F5E368" opacity="1.000000" stroke="none" 
	d="
M940.306763,833.446045 
	C932.438904,830.134766 924.817627,827.050110 917.159424,824.060181 
	C915.790344,823.525574 914.268311,823.382446 912.416626,822.507935 
	C912.008911,810.936829 912.001587,799.916382 911.994263,788.895935 
	C923.084229,790.849121 934.064758,793.056213 942.500977,801.998535 
	C942.883911,811.482483 943.029236,820.881409 942.894165,830.276367 
	C942.877625,831.430298 941.361816,832.562683 940.306763,833.446045 
z"/>
<path fill="#DE921A" opacity="1.000000" stroke="none" 
	d="
M415.048828,642.515625 
	C409.973816,644.151917 404.916534,646.074646 399.740997,646.476868 
	C383.248230,647.758972 366.722321,648.319092 350.263550,643.065796 
	C349.008270,638.845703 348.108582,634.775879 347.107544,630.247681 
	C348.715820,630.164062 350.280457,630.013367 351.845184,630.011963 
	C370.250275,629.995422 388.656891,630.125610 407.059296,629.903381 
	C411.062653,629.855042 413.251587,630.694275 413.553772,634.993225 
	C413.721985,637.386597 414.505951,639.736633 415.048828,642.515625 
z"/>
<path fill="#DE921A" opacity="1.000000" stroke="none" 
	d="
M797.023193,647.068604 
	C790.542725,645.462708 784.062195,643.856812 777.243164,642.087524 
	C776.989868,641.431946 777.020508,640.922607 777.169189,640.450500 
	C778.233398,637.070007 778.364563,632.045471 780.637817,630.728271 
	C783.664673,628.974487 788.364380,630.024963 792.345886,630.015869 
	C808.003540,629.980103 823.661316,630.001221 839.319092,630.001221 
	C841.126221,630.001221 842.933411,630.001221 845.488220,630.001221 
	C844.216431,634.450684 843.116089,638.300293 841.733704,642.745117 
	C837.980164,644.277771 834.508606,645.215271 830.608521,646.113770 
	C819.127686,646.406128 808.075439,646.737366 797.023193,647.068604 
z"/>
<path fill="#F5D64C" opacity="1.000000" stroke="none" 
	d="
M560.599854,430.093689 
	C558.612061,440.138794 556.680115,450.250916 553.740356,460.061066 
	C545.857666,486.365997 535.249695,511.638245 523.211914,536.282593 
	C518.484619,545.960632 512.788940,555.165710 507.122986,564.463196 
	C506.786377,562.638672 507.250854,560.833862 506.834778,559.262207 
	C506.342773,557.403748 505.090515,555.746704 504.167786,554.002319 
	C513.184570,536.147949 522.920715,518.612305 531.013916,500.348663 
	C538.966492,482.402588 545.293213,463.733276 552.233398,445.343597 
	C553.710327,441.430145 555.172424,437.423950 555.861572,433.329285 
	C556.367493,430.323273 557.744629,429.806000 560.599854,430.093689 
z"/>
<path fill="#F5C733" opacity="1.000000" stroke="none" 
	d="
M418.057556,564.570801 
	C413.644135,566.064697 409.213959,567.346558 404.707184,568.243530 
	C386.968994,571.774109 367.495514,555.982361 366.968201,537.315674 
	C372.336792,536.262146 377.715912,535.640259 383.567078,535.467529 
	C384.996399,538.536377 385.626160,541.339417 386.971344,543.741882 
	C391.325409,551.518311 402.733887,553.564697 409.042755,547.891907 
	C412.030365,553.321960 415.018005,558.751953 418.057556,564.570801 
z"/>
<path fill="#F5C733" opacity="1.000000" stroke="none" 
	d="
M848.058594,563.567993 
	C830.204895,574.074402 810.658325,566.712891 801.912537,552.089294 
	C799.368958,547.836121 798.593628,542.525452 796.983765,537.292236 
	C802.669373,536.262268 808.378906,535.639648 814.547119,535.498291 
	C816.112976,538.926697 816.612366,542.336853 818.439758,544.735046 
	C824.251526,552.361938 831.934509,552.367493 840.102844,548.958252 
	C842.737671,553.698669 845.372437,558.439026 848.058594,563.567993 
z"/>
<path fill="#F5B81D" opacity="1.000000" stroke="none" 
	d="
M639.119751,394.035034 
	C631.423584,404.929932 620.801636,411.539246 607.815002,413.509277 
	C593.456543,415.687347 579.750366,413.399170 568.227295,403.640533 
	C564.644897,400.606720 561.538086,397.011414 558.601562,393.336487 
	C560.931213,393.305176 562.998291,393.281281 564.795044,393.966522 
	C584.241028,401.382416 604.034485,402.275970 624.186646,397.445038 
	C629.151550,396.254852 634.141357,395.168915 639.119751,394.035034 
z"/>
<path fill="#F5DE57" opacity="1.000000" stroke="none" 
	d="
M504.018372,554.328491 
	C505.090515,555.746704 506.342773,557.403748 506.834778,559.262207 
	C507.250854,560.833862 506.786377,562.638672 506.865723,564.680298 
	C501.371460,574.092712 495.723083,583.165222 489.730133,592.762085 
	C481.883850,602.257812 474.509888,611.340759 466.814514,620.142761 
	C463.932831,623.438843 460.303040,626.080933 457.014374,629.021240 
	C456.680084,625.259155 456.345795,621.497009 455.986572,617.311523 
	C465.415100,605.986755 475.330902,595.445068 484.177338,584.071655 
	C491.403625,574.781189 497.353271,564.497803 504.018372,554.328491 
z"/>
<path fill="#F6C63C" opacity="1.000000" stroke="none" 
	d="
M295.894867,614.567993 
	C294.838806,617.738770 293.639862,620.600342 291.931519,623.572266 
	C286.642181,618.675476 281.656525,613.845947 277.139740,608.611816 
	C272.529999,603.269897 268.380859,597.530457 264.030060,591.965088 
	C254.972672,576.455750 247.632187,560.236450 243.697815,542.619385 
	C243.340958,541.021362 243.219543,539.370850 243.014923,537.317871 
	C244.352341,538.005371 246.438889,538.885254 246.857162,540.269348 
	C252.117905,557.677368 260.242218,573.742371 271.219971,588.056335 
	C278.466125,597.504700 287.511932,605.572754 295.894867,614.567993 
z"/>
<path fill="#F5E368" opacity="1.000000" stroke="none" 
	d="
M874.995422,643.996094 
	C868.580933,646.655884 862.166443,649.315613 855.375610,651.534058 
	C854.984192,647.358154 854.969055,643.623657 854.953857,639.889160 
	C868.979919,634.167297 882.205322,627.003052 894.343079,617.906250 
	C895.786133,616.824768 897.002686,615.441040 898.663086,614.182739 
	C899.335693,617.813171 899.669495,621.458252 899.833740,625.840332 
	C896.775085,629.039307 893.885986,631.501343 890.656006,634.036011 
	C885.208557,637.404419 880.101990,640.700256 874.995422,643.996094 
z"/>
<path fill="#F4AE21" opacity="1.000000" stroke="none" 
	d="
M639.430908,393.880188 
	C634.141357,395.168915 629.151550,396.254852 624.186646,397.445038 
	C604.034485,402.275970 584.241028,401.382416 564.795044,393.966522 
	C562.998291,393.281281 560.931213,393.305176 558.578918,393.000122 
	C556.457397,389.910278 554.746521,386.820160 553.101562,383.366669 
	C555.961487,383.929016 558.842834,384.652924 561.534363,385.816071 
	C571.958557,390.320831 582.617676,393.394348 594.103027,394.133636 
	C610.238403,395.172241 625.322266,392.034607 639.795532,385.144226 
	C641.103760,384.521423 642.638611,384.374542 644.450073,384.004852 
	C643.135376,387.243835 641.438660,390.484589 639.430908,393.880188 
z"/>
<path fill="#F5BB25" opacity="1.000000" stroke="none" 
	d="
M167.941620,490.415100 
	C172.856461,493.799011 177.826874,497.557312 182.794754,501.318909 
	C193.291275,509.266754 205.116913,514.224304 217.909729,517.081238 
	C219.603317,517.459473 221.160202,518.449768 222.885590,519.494202 
	C211.853897,522.971863 201.266846,520.481201 191.207031,515.925293 
	C180.924332,511.268463 173.654755,503.181885 168.617355,493.114777 
	C168.265915,492.412415 168.196579,491.568848 167.941620,490.415100 
z"/>
<path fill="#F5D64C" opacity="1.000000" stroke="none" 
	d="
M951.563965,536.942627 
	C949.207153,546.728699 947.251587,556.882324 943.485535,566.312927 
	C939.830322,575.466125 934.437378,583.945984 929.520264,592.557495 
	C928.502747,594.339478 926.219788,595.398743 924.519897,596.791077 
	C923.708801,595.077393 922.897705,593.363647 922.023621,591.265808 
	C925.963318,584.666748 930.541870,578.740479 933.835999,572.170288 
	C939.014893,561.840759 943.279846,551.055359 948.067871,540.524841 
	C948.688660,539.159485 950.118286,538.161865 951.563965,536.942627 
z"/>
<path fill="#F5D444" opacity="1.000000" stroke="none" 
	d="
M976.588135,422.109375 
	C975.827942,428.700317 973.574707,434.653381 967.755188,438.503265 
	C960.542114,443.275116 953.122437,442.910461 945.271362,439.018921 
	C947.603455,436.304657 950.104553,433.387451 953.063416,431.049500 
	C959.810364,425.718353 967.998047,423.820038 976.588135,422.109375 
z"/>
<path fill="#F5D444" opacity="1.000000" stroke="none" 
	d="
M249.968445,438.645203 
	C239.483612,444.105957 231.481903,443.027191 224.218887,434.425598 
	C221.880112,431.655853 221.368607,427.343201 220.030365,423.312256 
	C232.179810,423.777039 241.857147,429.416321 249.968445,438.645203 
z"/>
<path fill="#F5BB25" opacity="1.000000" stroke="none" 
	d="
M974.187195,520.469299 
	C975.173889,519.174866 976.279114,517.696899 977.647034,517.390076 
	C994.644958,513.577637 1009.733459,506.181458 1022.463135,494.155670 
	C1023.120361,493.534729 1024.229248,493.391754 1025.480713,493.015259 
	C1017.148315,511.317535 1002.144348,519.850830 982.405945,520.970703 
	C979.757812,521.120972 977.087708,520.886353 974.187195,520.469299 
z"/>
<path fill="#F5DE57" opacity="1.000000" stroke="none" 
	d="
M854.556396,639.936768 
	C854.969055,643.623657 854.984192,647.358154 855.000000,651.557312 
	C854.855164,652.322021 854.650330,652.573792 853.805298,652.954224 
	C845.815857,654.755615 838.407288,656.380066 831.001343,657.544495 
	C831.015015,653.440552 831.026062,649.796631 831.037109,646.152710 
	C834.508606,645.215271 837.980164,644.277771 841.770020,643.139404 
	C846.111877,641.953735 850.135376,640.968994 854.556396,639.936768 
z"/>
<path fill="#F5BB25" opacity="1.000000" stroke="none" 
	d="
M342.949615,591.417969 
	C345.139435,592.630249 347.437775,594.132935 349.616699,595.792419 
	C359.708618,603.478455 370.603455,609.470642 383.169952,612.062073 
	C384.062805,612.246155 384.841339,612.984680 385.865997,613.783203 
	C375.260284,616.803345 365.577393,613.771301 356.600861,607.999146 
	C350.455811,604.047668 345.822968,598.622742 342.949615,591.417969 
z"/>
<path fill="#F5D444" opacity="1.000000" stroke="none" 
	d="
M408.912720,547.583801 
	C402.733887,553.564697 391.325409,551.518311 386.971344,543.741882 
	C385.626160,541.339417 384.996399,538.536377 384.025970,535.544312 
	C394.022766,535.618530 402.049072,540.124390 408.912720,547.583801 
z"/>
<path fill="#F5BB25" opacity="1.000000" stroke="none" 
	d="
M773.203003,591.354370 
	C774.339478,591.493286 775.796387,591.690552 776.642700,592.514771 
	C786.688049,602.297913 798.816589,608.184875 812.169983,611.876953 
	C813.392212,612.215027 814.510010,612.930664 815.865417,613.788452 
	C804.504456,616.687012 794.037170,613.706909 785.243408,606.429443 
	C780.457703,602.468933 777.191345,596.672302 773.203003,591.354370 
z"/>
<path fill="#F5D444" opacity="1.000000" stroke="none" 
	d="
M840.048157,548.605103 
	C831.934509,552.367493 824.251526,552.361938 818.439758,544.735046 
	C816.612366,542.336853 816.112976,538.926697 815.007385,535.574829 
	C825.128845,536.108948 833.374023,540.627991 840.048157,548.605103 
z"/>
<path fill="#F5BB25" opacity="1.000000" stroke="none" 
	d="
M342.137207,590.282043 
	C342.428711,590.189880 342.632690,590.413330 342.868286,590.901672 
	C342.675934,590.922668 342.392548,590.733032 342.137207,590.282043 
z"/>
<path fill="#F5C32F" opacity="1.000000" stroke="none" 
	d="
M456.849792,629.309814 
	C460.303040,626.080933 463.932831,623.438843 466.814514,620.142761 
	C474.509888,611.340759 481.883850,602.257812 489.670227,593.104248 
	C490.303253,595.195251 490.948242,597.467712 490.954620,599.741943 
	C491.026306,625.408325 490.870758,651.075745 491.038666,676.741211 
	C491.187866,699.540222 491.681213,722.336914 491.989349,745.135010 
	C492.062866,750.575989 492.035614,756.018982 491.993591,761.460632 
	C491.967438,764.842529 493.136810,766.395874 496.857483,765.589417 
	C510.895569,762.546570 524.936707,765.186157 538.978088,765.764099 
	C542.969727,765.928406 546.968079,765.935242 550.963623,765.995728 
	C552.671936,766.021606 554.380981,766.000000 556.089661,766.000000 
	C556.121399,766.551880 556.153137,767.103760 556.184814,767.655701 
	C554.201721,767.770447 552.219910,767.920471 550.235291,767.993652 
	C543.266235,768.250977 536.292236,768.403992 529.327942,768.751892 
	C525.094727,768.963379 523.865479,771.583557 523.947266,775.558044 
	C524.121948,784.054443 524.001648,792.556885 523.534363,801.527161 
	C504.275452,802.332764 485.484406,802.666687 466.693512,803.008301 
	C465.862549,803.023376 465.024078,803.047852 464.203979,803.168762 
	C459.058533,803.927429 456.117004,801.504517 456.023529,796.194458 
	C455.926758,790.698181 456.008606,785.198914 455.997986,779.700928 
	C455.984894,772.934387 454.361328,771.193176 447.459534,771.033569 
	C441.563965,770.897217 435.662781,771.005371 428.976715,771.005371 
	C434.360565,768.052124 434.304596,763.431885 433.999695,758.726929 
	C433.667297,753.597595 433.108124,748.471130 433.045471,743.338562 
	C432.901794,731.569092 433.130066,719.794739 432.963715,708.025818 
	C432.794647,696.063354 432.284576,684.106201 432.021362,672.144470 
	C431.896759,666.482666 432.160309,660.808594 431.904236,655.155640 
	C431.824432,653.393860 430.618042,651.683228 429.927368,649.949158 
	C438.846649,643.165527 447.765930,636.381958 456.849792,629.309814 
z"/>
<path fill="#F5BF2B" opacity="1.000000" stroke="none" 
	d="
M429.575867,650.014282 
	C430.618042,651.683228 431.824432,653.393860 431.904236,655.155640 
	C432.160309,660.808594 431.896759,666.482666 432.021362,672.144470 
	C432.284576,684.106201 432.794647,696.063354 432.963715,708.025818 
	C433.130066,719.794739 432.901794,731.569092 433.045471,743.338562 
	C433.108124,748.471130 433.667297,753.597595 433.999695,758.726929 
	C434.304596,763.431885 434.360565,768.052124 428.976715,771.005371 
	C435.662781,771.005371 441.563965,770.897217 447.459534,771.033569 
	C454.361328,771.193176 455.984894,772.934387 455.997986,779.700928 
	C456.008606,785.198914 455.926758,790.698181 456.023529,796.194458 
	C456.117004,801.504517 459.058533,803.927429 464.203979,803.168762 
	C465.024078,803.047852 465.862549,803.023376 466.693512,803.008301 
	C485.484406,802.666687 504.275452,802.332764 523.535645,801.995361 
	C563.358887,801.662903 602.712952,801.332458 642.995605,800.999756 
	C648.543213,801.325439 653.157898,801.846680 657.781799,801.947815 
	C676.850403,802.364868 695.921753,802.654358 715.446655,802.997070 
	C724.267456,803.334534 732.633728,803.665649 741.417480,804.016174 
	C745.887939,804.353760 749.940918,804.671997 753.993835,804.990234 
	C758.587830,805.341187 760.123413,802.967834 760.038940,798.661926 
	C759.893005,791.218628 760.015137,783.770325 759.992554,776.324219 
	C759.985657,774.047668 759.959167,771.835083 763.614014,772.487976 
	C764.021667,780.588074 764.018127,788.222046 764.017395,795.855957 
	C764.016418,806.033752 764.017395,806.033752 774.413940,805.991394 
	C792.896362,807.340149 810.957642,808.663391 829.295166,810.238098 
	C835.240051,811.310852 840.887573,812.344788 846.581665,812.908386 
	C857.869934,814.025696 857.982971,813.824768 857.982971,802.513428 
	C857.982971,801.183899 858.093201,799.843567 857.964172,798.526672 
	C857.327209,792.024963 856.627014,785.529419 855.949097,779.031738 
	C857.073303,779.307983 858.184631,779.664307 859.323792,779.847839 
	C869.998657,781.567261 870.000000,781.558777 870.000000,792.437866 
	C870.000000,797.745056 870.247498,803.067200 869.927612,808.355042 
	C869.631592,813.248718 871.220337,816.002563 876.405212,816.120789 
	C877.369141,816.142761 878.323059,816.606018 880.027954,816.917297 
	C881.855286,817.312195 882.936218,817.655396 884.017090,817.998657 
	C882.286438,818.140625 880.529541,818.548828 878.829407,818.381165 
	C867.936401,817.307251 857.067566,815.979553 846.168396,814.978760 
	C830.972290,813.583374 815.759705,812.362549 800.547791,811.146790 
	C794.424622,810.657471 788.288269,810.293579 782.151245,810.024719 
	C772.353638,809.595276 762.551819,809.250305 752.749390,808.945618 
	C730.148438,808.243164 707.550232,807.297241 684.943420,806.974854 
	C645.649475,806.414429 606.350159,806.208679 567.052490,805.940979 
	C551.722168,805.836548 536.385498,805.732788 521.060242,806.045715 
	C498.620453,806.503845 476.181488,807.165222 453.755219,808.065491 
	C436.172699,808.771423 418.612305,810.017883 401.035034,810.880859 
	C399.190369,810.971497 397.298126,810.093201 395.210449,809.339233 
	C405.001221,805.680298 405.001312,805.680298 405.001251,794.810364 
	C405.001221,789.988342 405.016998,785.166260 404.996857,780.344299 
	C404.971191,774.192383 404.791138,774.026001 398.430756,773.999634 
	C395.521271,773.987549 392.611725,773.997620 388.588409,773.997620 
	C394.224457,767.056274 390.701691,760.406982 390.596191,754.090820 
	C390.431122,744.204956 389.003967,734.334045 387.980835,724.470337 
	C386.650421,711.644531 385.191498,698.832031 383.789246,686.013733 
	C382.873138,677.639282 381.959503,669.264526 381.032471,660.476929 
	C397.903931,660.673706 414.086121,657.896545 429.575867,650.014282 
z"/>
<path fill="#F6D34B" opacity="1.000000" stroke="none" 
	d="
M663.786560,521.264282 
	C664.680908,521.951904 665.398499,522.867310 665.939331,523.877258 
	C674.937073,540.679321 683.912781,557.493225 692.689941,574.961182 
	C691.273438,585.959106 690.020386,596.295776 688.855957,606.642517 
	C686.877502,624.223206 684.981262,641.813110 683.000977,659.393494 
	C681.279236,674.678955 679.333923,689.940796 677.767456,705.241699 
	C675.695923,725.475769 673.897339,745.737793 671.981445,765.987793 
	C663.961060,765.989197 655.940796,765.990662 647.449585,765.978516 
	C648.297729,744.289917 649.570557,722.611938 650.951843,700.940918 
	C651.890747,686.210449 652.911804,671.484436 654.023071,656.765991 
	C655.245972,640.568970 656.676697,624.387634 657.897034,608.190430 
	C658.707214,597.438354 659.211548,586.663330 660.023193,575.911438 
	C661.208374,560.212097 662.583862,544.527222 663.780396,528.828735 
	C663.964172,526.418213 663.624878,523.967896 663.786560,521.264282 
z"/>
<path fill="#F6C63C" opacity="1.000000" stroke="none" 
	d="
M672.441467,765.992432 
	C673.897339,745.737793 675.695923,725.475769 677.767456,705.241699 
	C679.333923,689.940796 681.279236,674.678955 683.000977,659.393494 
	C684.981262,641.813110 686.877502,624.223206 688.855957,606.642517 
	C690.020386,596.295776 691.273438,585.959106 692.747070,575.308960 
	C699.638184,585.095520 706.268860,595.191040 712.933411,606.058228 
	C711.315186,617.292114 709.522278,627.734375 708.043884,638.221008 
	C705.757385,654.439941 703.758606,670.699280 701.501770,686.922485 
	C699.427002,701.836731 697.169800,716.725647 694.998047,731.626465 
	C693.328064,743.084961 691.665955,754.544617 690.000305,766.003723 
	C684.300720,766.001526 678.601074,765.999268 672.441467,765.992432 
z"/>
<path fill="#F5C32F" opacity="1.000000" stroke="none" 
	d="
M690.190552,766.246765 
	C691.665955,754.544617 693.328064,743.084961 694.998047,731.626465 
	C697.169800,716.725647 699.427002,701.836731 701.501770,686.922485 
	C703.758606,670.699280 705.757385,654.439941 708.043884,638.221008 
	C709.522278,627.734375 711.315186,617.292114 712.986084,606.414673 
	C714.684998,606.849976 716.732056,607.340698 717.980896,608.614136 
	C723.015320,613.747742 727.803345,619.122986 732.529236,624.879028 
	C731.250549,628.351746 729.562256,631.270020 729.097168,634.371704 
	C727.107910,647.636963 725.787842,661.005981 723.654663,674.245483 
	C719.331848,701.074463 714.493774,727.820740 710.238647,754.659912 
	C709.495911,759.344910 707.275757,764.754089 711.536255,769.004395 
	C704.713318,768.999756 698.359131,768.988159 692.004883,768.976624 
	C691.463501,768.147644 690.922119,767.318726 690.190552,766.246765 
z"/>
<path fill="#F6D34B" opacity="1.000000" stroke="none" 
	d="
M691.537720,768.984741 
	C698.359131,768.988159 704.713318,768.999756 711.909546,769.008301 
	C713.497986,769.014648 714.244507,769.024048 714.992676,769.500000 
	C714.993530,780.974609 714.992859,791.982727 714.992126,802.990784 
	C695.921753,802.654358 676.850403,802.364868 657.781799,801.947815 
	C653.157898,801.846680 648.543213,801.325439 643.464600,800.997437 
	C643.004089,792.194641 642.991638,783.391663 643.006409,774.588745 
	C643.017273,768.110718 643.122192,767.905396 649.815735,768.025330 
	C663.568665,768.271851 677.319031,768.661926 691.537720,768.984741 
z"/>
<path fill="#F5D64C" opacity="1.000000" stroke="none" 
	d="
M890.996887,633.963318 
	C893.885986,631.501343 896.775085,629.039307 899.834473,626.289185 
	C904.382568,622.341125 908.760193,618.681152 913.137878,615.021118 
	C913.674072,615.269043 914.210205,615.516968 914.746399,615.764893 
	C904.770813,670.500977 892.187195,724.719299 880.998901,779.627075 
	C875.902588,779.460632 870.830566,778.886597 865.381592,777.719482 
	C865.063843,775.799683 864.957336,774.440979 865.206604,773.150940 
	C872.023804,737.859192 878.966980,702.591553 885.671875,667.278564 
	C887.768799,656.234619 889.239563,645.071777 890.996887,633.963318 
z"/>
<path fill="#F5DE57" opacity="1.000000" stroke="none" 
	d="
M264.020264,592.408569 
	C268.380859,597.530457 272.529999,603.269897 277.139740,608.611816 
	C281.656525,613.845947 286.642181,618.675476 291.712158,623.846191 
	C293.670715,631.942383 295.381531,639.866394 296.995575,647.810059 
	C298.577576,655.595947 300.052643,663.403503 301.589874,671.198547 
	C303.735443,682.078735 305.861725,692.962830 308.059387,703.832458 
	C309.827209,712.576172 311.961365,721.254822 313.449341,730.044189 
	C316.157715,746.042480 318.507172,762.101440 321.011292,778.579224 
	C315.285126,780.007812 309.554138,780.992188 303.399323,781.962708 
	C299.879425,766.828125 296.820801,751.699585 293.677521,736.588745 
	C289.895233,718.405823 286.065613,700.232666 282.212067,682.064697 
	C276.358307,654.466309 270.450012,626.879333 264.623199,599.275269 
	C264.181793,597.184265 264.203857,594.995483 264.020264,592.408569 
z"/>
<path fill="#F5D444" opacity="1.000000" stroke="none" 
	d="
M338.438507,776.992310 
	C335.489227,761.970459 332.952850,746.956360 330.486847,731.930664 
	C326.949036,710.374573 323.494324,688.804749 319.933777,667.252441 
	C318.934967,661.206848 317.594299,655.217285 316.625946,649.167480 
	C316.394806,647.723389 316.526001,645.410461 317.395081,644.813110 
	C318.404541,644.119141 320.549255,644.513611 321.959839,645.059448 
	C329.840240,648.109070 337.647552,651.347534 345.744995,654.772095 
	C346.641174,660.544617 347.220978,666.072815 347.913330,671.586914 
	C349.580109,684.861511 351.272369,698.132935 353.005066,711.399048 
	C354.908661,725.973572 356.878937,740.539429 358.799652,755.111694 
	C359.511871,760.515259 360.315247,765.915222 360.725037,771.343384 
	C360.810760,772.478760 359.482208,774.648865 358.575439,774.782532 
	C352.044495,775.745422 345.454285,776.306458 338.438507,776.992310 
z"/>
<path fill="#F5E368" opacity="1.000000" stroke="none" 
	d="
M345.949585,812.845520 
	C333.963715,814.277954 321.977814,815.710449 309.551697,817.191223 
	C309.073578,806.461975 309.035706,795.684326 308.998718,784.433960 
	C317.591949,782.647461 326.176788,781.281189 334.780426,780.045776 
	C338.200531,779.554626 341.662292,779.353210 345.549927,779.486938 
	C345.979706,790.917847 345.964630,801.881653 345.949585,812.845520 
z"/>
<path fill="#F5DE57" opacity="1.000000" stroke="none" 
	d="
M346.378937,812.891968 
	C345.964630,801.881653 345.979706,790.917847 345.992065,779.487671 
	C353.353729,778.344666 360.718079,777.667908 368.540771,777.458374 
	C368.995392,788.943054 368.991730,799.960510 368.988068,810.978027 
	C361.594818,811.631470 354.201569,812.284973 346.378937,812.891968 
z"/>
<path fill="#F6D34B" opacity="1.000000" stroke="none" 
	d="
M369.378845,810.836426 
	C368.991730,799.960510 368.995392,788.943054 369.001129,777.455200 
	C373.587891,776.015198 378.134644,774.676941 382.770050,774.200317 
	C386.070953,773.860901 388.196228,775.505310 388.081421,779.599182 
	C387.815674,789.076172 387.991272,798.565430 387.981445,808.516602 
	C381.906525,809.553833 375.838043,810.124329 369.378845,810.836426 
z"/>
<path fill="#F5A61D" opacity="1.000000" stroke="none" 
	d="
M754.007019,642.985413 
	C764.980957,649.887329 776.355164,655.878235 789.287292,658.227661 
	C791.544067,658.637695 793.855774,658.744934 796.957886,659.156128 
	C805.848694,659.532104 813.923706,659.744019 821.998657,660.385498 
	C817.505859,685.855835 813.017700,710.897400 808.518372,735.936951 
	C806.356812,747.966370 804.174133,759.991943 802.000977,772.019287 
	C782.306458,771.010559 762.612427,769.992676 742.916748,769.007141 
	C740.925537,768.907471 738.924622,769.002808 736.022583,769.011047 
	C733.076355,769.011230 731.035767,769.008057 729.000122,768.585571 
	C729.388062,765.545715 729.683716,762.908936 730.167175,760.307007 
	C737.096680,723.010864 744.022766,685.714111 751.082153,648.442505 
	C751.448547,646.508240 753.004761,644.799255 754.007019,642.985413 
z"/>
<path fill="#F5B81D" opacity="1.000000" stroke="none" 
	d="
M802.318970,772.275269 
	C804.174133,759.991943 806.356812,747.966370 808.518372,735.936951 
	C813.017700,710.897400 817.505859,685.855835 822.305542,660.144836 
	C825.407837,658.984558 828.203247,658.494568 830.998657,658.004517 
	C838.407288,656.380066 845.815857,654.755615 853.600708,653.089844 
	C852.164001,665.664856 850.493530,678.303650 848.506409,690.892578 
	C845.096802,712.493225 841.499756,734.064270 837.957214,755.643799 
	C837.152161,760.547729 836.087036,765.414246 835.441406,770.337280 
	C834.939087,774.167542 832.904968,775.364868 829.326050,775.013123 
	C820.434326,774.139221 811.533875,773.352783 802.318970,772.275269 
z"/>
<path fill="#F5A61D" opacity="1.000000" stroke="none" 
	d="
M829.018860,809.986572 
	C810.957642,808.663391 792.896362,807.340149 774.415222,805.526611 
	C773.993713,794.366516 773.992065,783.696655 773.990479,773.026855 
	C784.030212,773.434570 794.084900,773.624695 804.105164,774.314697 
	C813.132935,774.936340 822.122864,776.105713 831.567444,777.507263 
	C832.005127,786.396240 832.213379,794.819946 831.867981,803.220947 
	C831.773804,805.511353 830.014160,807.733215 829.018860,809.986572 
z"/>
<path fill="#F5C936" opacity="1.000000" stroke="none" 
	d="
M890.656006,634.036011 
	C889.239563,645.071777 887.768799,656.234619 885.671875,667.278564 
	C878.966980,702.591553 872.023804,737.859192 865.206604,773.150940 
	C864.957336,774.440979 865.063843,775.799683 865.010864,777.557678 
	C861.128662,777.591064 857.240234,777.193176 852.901245,776.749207 
	C854.511047,767.693604 856.022461,759.421875 857.446899,751.135193 
	C861.652954,726.667114 865.800232,702.188843 870.021179,677.723389 
	C871.793823,667.448792 873.703979,657.198059 875.515747,646.930115 
	C875.651978,646.157776 875.500061,645.334595 875.238770,644.265564 
	C880.101990,640.700256 885.208557,637.404419 890.656006,634.036011 
z"/>
<path fill="#E8A625" opacity="1.000000" stroke="none" 
	d="
M829.295166,810.238037 
	C830.014160,807.733215 831.773804,805.511353 831.867981,803.220947 
	C832.213379,794.819946 832.005127,786.396240 832.006348,777.518799 
	C839.689331,777.713745 847.371399,778.370972 855.501221,779.029968 
	C856.627014,785.529419 857.327209,792.024963 857.964172,798.526672 
	C858.093201,799.843567 857.982971,801.183899 857.982971,802.513428 
	C857.982971,813.824768 857.869934,814.025696 846.581665,812.908386 
	C840.887573,812.344788 835.240051,811.310852 829.295166,810.238037 
z"/>
<path fill="#F6C63C" opacity="1.000000" stroke="none" 
	d="
M728.995117,769.004883 
	C731.035767,769.008057 733.076355,769.011230 735.553833,769.022827 
	C737.082581,769.685303 738.174561,770.339417 739.652405,771.417419 
	C740.358826,782.559753 740.679443,793.278259 741.000000,803.996765 
	C732.633728,803.665649 724.267456,803.334534 715.446655,802.997070 
	C714.992859,791.982727 714.993530,780.974609 715.177551,769.272217 
	C715.903809,768.390015 716.446777,768.202271 717.112427,768.384888 
	C720.823608,768.846985 724.412109,768.938660 728.249268,769.026917 
	C728.497986,769.023499 728.995117,769.004883 728.995117,769.004883 
z"/>
<path fill="#F6D34B" opacity="1.000000" stroke="none" 
	d="
M884.384705,818.006775 
	C882.936218,817.655396 881.855286,817.312195 880.418213,816.964844 
	C880.044434,807.338074 880.115417,797.714050 879.968811,788.093384 
	C879.903381,783.792725 881.616821,782.392151 885.771667,783.397339 
	C889.289246,784.248291 892.884766,784.776917 896.565186,786.084961 
	C896.457214,788.510620 896.044861,790.298340 896.033813,792.088623 
	C895.976440,801.368225 896.021484,810.648499 895.771301,819.953979 
	C895.338074,819.988159 895.164368,819.996948 894.990723,820.005676 
	C894.523376,819.711975 894.056091,819.418213 892.916016,819.068298 
	C890.482239,818.689819 888.721130,818.367493 886.960083,818.045166 
	C886.224182,818.035095 885.488220,818.024963 884.384705,818.006775 
z"/>
<path fill="#F5DE57" opacity="1.000000" stroke="none" 
	d="
M896.030884,819.928528 
	C896.021484,810.648499 895.976440,801.368225 896.033813,792.088623 
	C896.044861,790.298340 896.457214,788.510620 896.852783,786.332031 
	C901.823181,786.770081 906.625305,787.597717 911.710815,788.660645 
	C912.001587,799.916382 912.008911,810.936829 912.029663,822.411926 
	C908.323730,822.249756 904.604431,821.632935 900.208618,820.745728 
	C898.365051,820.293030 897.197998,820.110779 896.030884,819.928528 
z"/>
<path fill="#F5C733" opacity="1.000000" stroke="none" 
	d="
M741.417480,804.016174 
	C740.679443,793.278259 740.358826,782.559753 740.020386,771.419434 
	C756.781555,770.730042 753.808655,771.634644 753.983765,785.084839 
	C754.066040,791.407227 753.997131,797.731689 753.995239,804.522705 
	C749.940918,804.671997 745.887939,804.353760 741.417480,804.016174 
z"/>
<path fill="#E8A625" opacity="1.000000" stroke="none" 
	d="
M773.682495,772.764526 
	C773.992065,783.696655 773.993713,794.366516 773.994019,805.501099 
	C764.017395,806.033752 764.016418,806.033752 764.017395,795.855957 
	C764.018127,788.222046 764.021667,780.588074 764.031494,772.488037 
	C767.150879,772.182007 770.262756,772.342102 773.682495,772.764526 
z"/>
<path fill="#F5B329" opacity="1.000000" stroke="none" 
	d="
M716.989746,768.014526 
	C716.446777,768.202271 715.903809,768.390015 715.175903,768.805603 
	C714.244507,769.024048 713.497986,769.014648 712.378174,769.001404 
	C707.275757,764.754089 709.495911,759.344910 710.238647,754.659912 
	C714.493774,727.820740 719.331848,701.074463 723.654663,674.245483 
	C725.787842,661.005981 727.107910,647.636963 729.097168,634.371704 
	C729.562256,631.270020 731.250549,628.351746 732.689209,625.169922 
	C739.862854,630.819946 746.723206,636.649048 753.795288,642.731812 
	C753.004761,644.799255 751.448547,646.508240 751.082153,648.442505 
	C744.022766,685.714111 737.096680,723.010864 730.167175,760.307007 
	C729.683716,762.908936 729.388062,765.545715 729.000122,768.585571 
	C728.995117,769.004883 728.497986,769.023499 727.939819,768.759399 
	C723.917664,768.335022 720.453735,768.174805 716.989746,768.014526 
z"/>
<path fill="#F5D444" opacity="1.000000" stroke="none" 
	d="
M831.001343,657.544495 
	C828.203247,658.494568 825.407837,658.984558 822.305542,659.715210 
	C813.923706,659.744019 805.848694,659.532104 797.396484,659.142822 
	C797.016479,655.301880 797.013611,651.638428 797.016968,647.521729 
	C808.075439,646.737366 819.127686,646.406128 830.608521,646.113770 
	C831.026062,649.796631 831.015015,653.440552 831.001343,657.544495 
z"/>
<path fill="#F5BF2B" opacity="1.000000" stroke="none" 
	d="
M887.069763,818.384644 
	C888.721130,818.367493 890.482239,818.689819 892.631836,819.037170 
	C891.073364,818.949524 889.126404,818.836853 887.069763,818.384644 
z"/>
<path fill="#F5BF2B" opacity="1.000000" stroke="none" 
	d="
M895.771301,819.953979 
	C897.197998,820.110779 898.365051,820.293030 899.785278,820.726196 
	C898.542969,820.815613 897.047607,820.654175 895.271484,820.249207 
	C895.164368,819.996948 895.338074,819.988159 895.771301,819.953979 
z"/>
<path fill="#F5C32F" opacity="1.000000" stroke="none" 
	d="
M717.112427,768.384888 
	C720.453735,768.174805 723.917664,768.335022 727.691162,768.762817 
	C724.412109,768.938660 720.823608,768.846985 717.112427,768.384888 
z"/>
</svg>